<?xml version="1.0" encoding="UTF-8"?>
<svg id="Layer_1" xmlns="http://www.w3.org/2000/svg" version="1.1" viewBox="0 0 95.76 95.28">
  <!-- Generator: Adobe Illustrator 29.8.2, SVG Export Plug-In . SVG Version: 2.1.1 Build 3)  -->
  <path d="M60.53,38.4c2.04-.11,4.07-.56,6.11-.72,3.65-.27,7.52-.1,11.14.02,1.96.06,7.32,2.88,8.61,4.34.91,1.03,1.07,1.8.34,2.97-3.19,5.12-8.29,6.01-13.88,6.32-3.55.19-7.17-.04-10.72.36l3.11,4.77c3.75,4.73,8.35,10,11.39,15.19,1.28,2.19,2.61,5.76,2.12,8.26-.05.24-.34.9-.49,1.11-.2.28-2.58,2-2.95,2.18-1.16.56-1.96.4-3.12-.01-3.57-1.26-6.14-4.3-8.46-7.13-4.67-5.7-9.43-11.39-13.82-17.37l-.53-.27-2.48,4.52c-3.36,5.35-7.53,10.04-11.42,14.98-1.76,2.24-3.99,6.28-7.02,7-.35.08-.61-.1-.89-.03-.35.09-.61.54-1.15.62-1.41.23-4.03-.27-4.6-1.76s-.5-2.95,0-4.43c.37-1.07,1.48-2.38,1.76-3.2.68-1.96.95-3.14,2.01-5.07,3.51-6.37,8.82-11.88,12.43-18.22-1.85-.13-3.73-.13-5.59-.1-4.53.07-9.12.22-13.66.16-3.56-.04-7.1.42-9.46-2.72-.74-.98-.82-1.58-.69-2.81.17-1.56,1.21-2.09,2.52-2.8,4.83-2.64,8.8-3.43,14.23-4.2,3.42-.49,6.88-.81,10.34-.91.05-.27-.03-.41-.17-.63-.99-1.52-2.64-2.87-3.7-4.45-1.92-2.85-3.85-5-5.77-7.69-2.12-2.96-4.92-11.93-2.13-14.86.31-.32.71-.26.96-.46s.3-.63.54-.88c1.15-1.24,2.77-.86,3.91.17.27.24.42.63.7.9,6.38,6.15,11.19,13.64,16.66,20.55.17.21.97,1.2,1.15,1.15l4.73-8.21c3.31-4.24,5.16-9.88,9.83-12.85,2.23-1.42,3.99-2.39,6.49-.88,1.63.98,2.02,1.89,2.08,3.77.14,4.42-2.91,8.14-4.82,11.85-1.05,2.04-1.84,4.27-2.89,6.33-.88,1.74-2.01,3.34-2.75,5.13Z"/>
</svg>