<svg width="28" height="28" viewBox="0 0 28 28" fill="none" xmlns="http://www.w3.org/2000/svg">
<rect width="28" height="28" rx="6" fill="black"/>
<g filter="url(#filter0_i_5227_4354)">
<path d="M17.2608 12.8567C17.6693 12.6218 18.1745 12.6218 18.5831 12.8567L19.6391 13.4664C19.6728 13.4853 19.7093 13.5001 19.7465 13.5104C19.7539 13.5133 19.7613 13.515 19.7699 13.5161C19.8065 13.5247 19.8436 13.5293 19.8802 13.531H19.8859C19.8905 13.531 19.8933 13.531 19.8979 13.5293C19.9316 13.5293 19.9653 13.5235 19.9991 13.5161C20.0048 13.5161 20.0111 13.5144 20.0168 13.5115C20.0522 13.5013 20.0871 13.4864 20.1196 13.4693C20.1225 13.4675 20.1271 13.4664 20.1299 13.4647L22.2408 12.2453C22.3922 12.1584 22.4848 11.9973 22.4848 11.8224V9.38412C22.4848 9.20926 22.3922 9.04755 22.2408 8.96126L20.1299 7.74183C19.9785 7.65498 19.7922 7.65498 19.6408 7.74183L17.5299 8.96126C17.5299 8.96126 17.5242 8.96583 17.5213 8.96698C17.4893 8.98583 17.4579 9.00983 17.4316 9.03612C17.4271 9.04069 17.4242 9.04469 17.4196 9.04926C17.3962 9.0744 17.3756 9.1024 17.3568 9.13155C17.3539 9.13612 17.3511 9.14012 17.3482 9.1464C17.3305 9.17898 17.3156 9.21269 17.3053 9.24926C17.3025 9.25669 17.3008 9.26412 17.2996 9.27269C17.2911 9.30926 17.2848 9.34755 17.2848 9.38755V10.607C17.2848 11.0773 17.0322 11.5161 16.6236 11.751C16.2151 11.9858 15.7099 11.9858 15.3013 11.751L14.2453 11.1413C14.2116 11.1224 14.1751 11.1075 14.1379 11.0973C14.1305 11.0944 14.1231 11.0927 14.1145 11.0915C14.0779 11.083 14.0408 11.0784 14.0042 11.0767H13.9882C13.9528 11.0767 13.9191 11.0824 13.8853 11.0898C13.8796 11.0898 13.8733 11.0915 13.8693 11.0927C13.8328 11.103 13.7991 11.1178 13.7648 11.1355C13.7619 11.1373 13.7573 11.1384 13.7545 11.1401L11.6436 12.3595C11.4922 12.4464 11.3996 12.6075 11.3996 12.7824V15.2207C11.3996 15.3955 11.4922 15.5573 11.6436 15.6435L13.7545 16.863C13.7545 16.863 13.7619 16.8658 13.7648 16.8675C13.7985 16.8853 13.8322 16.9001 13.8693 16.9104C13.8751 16.9121 13.8813 16.9133 13.8871 16.915C13.9208 16.9224 13.9545 16.927 13.9882 16.9281C13.9928 16.9281 13.9956 16.9298 14.0002 16.9298H14.0059C14.0425 16.9298 14.0796 16.9241 14.1162 16.915C14.1236 16.9133 14.1311 16.9104 14.1396 16.9093C14.1762 16.899 14.2116 16.8841 14.2471 16.8653L15.3031 16.2555C15.7116 16.0207 16.2168 16.0207 16.6248 16.2555C17.0316 16.4904 17.2859 16.9298 17.2859 17.4001V18.6195C17.2859 18.659 17.2916 18.6973 17.3008 18.7338C17.3025 18.7413 17.3036 18.7498 17.3065 18.7573C17.3168 18.7927 17.3316 18.8275 17.3488 18.8601C17.3516 18.8647 17.3545 18.8687 17.3579 18.875C17.3756 18.9041 17.3962 18.9321 17.4213 18.9573C17.4259 18.9618 17.4288 18.9658 17.4333 18.9704C17.4596 18.9967 17.4905 19.019 17.5231 19.0395C17.5259 19.0413 17.5288 19.0441 17.5316 19.0453L19.6425 20.2647C19.7173 20.3087 19.8025 20.331 19.8865 20.331C19.9705 20.331 20.0556 20.3087 20.1305 20.2647L22.2413 19.0453C22.3928 18.9584 22.4853 18.7973 22.4853 18.6224V16.1841C22.4853 16.0093 22.3928 15.8475 22.2413 15.7613L20.1305 14.5418C20.1305 14.5418 20.1231 14.539 20.1202 14.5373C20.0865 14.5195 20.0528 14.5047 20.0162 14.4944C20.0105 14.4933 20.0059 14.4933 20.0002 14.4915C19.9665 14.483 19.9311 14.4784 19.8973 14.4784H19.8813C19.8448 14.4784 19.8082 14.4841 19.7711 14.4933C19.7636 14.495 19.7562 14.4978 19.7493 14.499C19.7128 14.5093 19.6773 14.5241 19.6419 14.543L18.5859 15.1527C18.1791 15.3875 17.6722 15.3875 17.2642 15.1527C16.8573 14.9178 16.6031 14.4784 16.6031 14.0081C16.6031 13.5378 16.8556 13.099 17.2642 12.8635L17.2625 12.8578L17.2608 12.8567Z" fill="white"/>
<path d="M5.7602 12.2475L7.87105 13.467C7.94591 13.511 8.03105 13.5333 8.11505 13.5333C8.19905 13.5333 8.2842 13.511 8.35905 13.467L10.4699 12.2475C10.4699 12.2475 10.4756 12.243 10.4785 12.2418C10.5111 12.223 10.5413 12.199 10.5682 12.1727C10.5728 12.1681 10.5756 12.1641 10.5802 12.1595C10.6036 12.1344 10.6242 12.1064 10.6436 12.0773C10.6465 12.0727 10.6493 12.0687 10.6522 12.0624C10.6699 12.0298 10.6848 11.9961 10.6951 11.9595C10.6979 11.9521 10.6996 11.9447 10.7008 11.9361C10.7093 11.8995 10.7156 11.8613 10.7156 11.8218V10.6024C10.7156 10.1321 10.9682 9.69326 11.3768 9.4584C11.7853 9.22355 12.2905 9.22355 12.6991 9.4584L13.7551 10.0681C13.7888 10.087 13.8253 10.1018 13.8625 10.1121C13.8699 10.115 13.8773 10.1167 13.8859 10.1178C13.9225 10.1264 13.9579 10.131 13.9962 10.1327H14.0019C14.0065 10.1327 14.0093 10.131 14.0139 10.131C14.0476 10.131 14.0813 10.1253 14.1151 10.1178C14.1208 10.1178 14.1271 10.1161 14.1328 10.1133C14.1693 10.103 14.2031 10.0881 14.2373 10.0704C14.2402 10.0693 14.2448 10.0675 14.2476 10.0658L16.3585 8.8464C16.5099 8.75955 16.6025 8.5984 16.6025 8.42355V5.98526C16.6025 5.8104 16.5099 5.64869 16.3585 5.5624L14.2476 4.34297C14.0962 4.25612 13.9099 4.25612 13.7585 4.34297L11.6476 5.5624C11.6476 5.5624 11.6419 5.56698 11.6391 5.56812C11.6071 5.58698 11.5762 5.61097 11.5493 5.63726C11.5448 5.64183 11.5419 5.64583 11.5373 5.6504C11.5139 5.67555 11.4933 5.70355 11.4739 5.73269C11.4711 5.73726 11.4682 5.74126 11.4653 5.74755C11.4476 5.78012 11.4328 5.81383 11.4225 5.8504C11.4196 5.85783 11.4179 5.86526 11.4168 5.87383C11.4076 5.9104 11.4019 5.94869 11.4019 5.98869V7.20812C11.4019 7.6784 11.1493 8.11726 10.7408 8.35269C10.3339 8.58755 9.82705 8.58755 9.41848 8.35269L8.36248 7.74297C8.32877 7.72412 8.2922 7.70926 8.25505 7.69898C8.24763 7.69612 8.2402 7.6944 8.23162 7.69326C8.19505 7.68469 8.15791 7.68012 8.12134 7.6784H8.10534C8.06991 7.6784 8.0362 7.68412 8.00248 7.69155C7.99677 7.69155 7.99048 7.69326 7.98648 7.6944C7.94991 7.70469 7.9162 7.71955 7.88191 7.73726C7.87905 7.73897 7.87448 7.74012 7.87163 7.74183L5.76077 8.96126C5.60934 9.04812 5.51677 9.20926 5.51677 9.38412V11.8224C5.51677 11.9973 5.60934 12.159 5.76077 12.2453V12.2481L5.7602 12.2475Z" fill="white"/>
<path d="M16.3556 19.1515L14.2448 17.9321C14.2448 17.9321 14.2373 17.9293 14.2345 17.9275C14.2008 17.9098 14.1671 17.8955 14.1299 17.8853C14.1242 17.8835 14.1179 17.8824 14.1122 17.8807C14.0785 17.8733 14.0448 17.8675 14.0093 17.8675H13.9933C13.9568 17.8675 13.9196 17.8733 13.8831 17.8824C13.8756 17.8841 13.8682 17.887 13.8608 17.8881C13.8242 17.8984 13.7888 17.9133 13.7533 17.9321L12.6973 18.5418C12.2905 18.7767 11.7836 18.7767 11.3768 18.5418C10.9682 18.307 10.7156 17.8675 10.7156 17.3973V16.1778C10.7156 16.1384 10.7099 16.1001 10.7008 16.063C10.6996 16.0555 10.6979 16.047 10.6951 16.0395C10.6848 16.0041 10.6699 15.9693 10.6522 15.9367C10.6493 15.9321 10.6465 15.9281 10.6436 15.9218C10.6259 15.8927 10.6053 15.8647 10.5802 15.8395C10.5756 15.835 10.5728 15.831 10.5688 15.8264C10.5425 15.8001 10.5116 15.7778 10.4791 15.7573C10.4762 15.7555 10.4733 15.7527 10.4705 15.7515L8.35962 14.5321C8.2082 14.4453 8.02191 14.4453 7.87048 14.5321L5.75962 15.7515C5.6082 15.8384 5.51562 15.9995 5.51562 16.1744V18.6127C5.51562 18.7875 5.6082 18.9493 5.75962 19.0355L7.87048 20.255C7.87048 20.255 7.87791 20.2578 7.88077 20.2595C7.91448 20.2773 7.9482 20.2915 7.98362 20.3018C7.98934 20.3035 7.99563 20.3047 8.00134 20.3064C8.03505 20.3138 8.06763 20.3184 8.10248 20.3195C8.10705 20.3195 8.11105 20.3207 8.11448 20.3207H8.1202C8.15677 20.3207 8.19391 20.315 8.22877 20.3058C8.2362 20.3041 8.24477 20.3013 8.2522 20.3001C8.28877 20.2898 8.3242 20.275 8.35962 20.2561L9.41563 19.6464C9.8242 19.4115 10.3293 19.4115 10.7379 19.6464C11.1448 19.8813 11.3991 20.3207 11.3991 20.791V22.0104C11.3991 22.0498 11.4048 22.0881 11.4139 22.1253C11.4156 22.1327 11.4168 22.1413 11.4196 22.1487C11.4299 22.1841 11.4448 22.219 11.4625 22.2515C11.4653 22.2561 11.4682 22.2601 11.4711 22.2664C11.4888 22.2955 11.5093 22.3235 11.5345 22.3487C11.5391 22.3533 11.5419 22.3573 11.5459 22.3618C11.5722 22.3881 11.6031 22.4104 11.6356 22.431C11.6385 22.4327 11.6413 22.4355 11.6448 22.4367L13.7556 23.6561C13.8305 23.7001 13.9156 23.7224 13.9996 23.7224C14.0836 23.7224 14.1688 23.7001 14.2436 23.6561L16.3545 22.4367C16.5059 22.3498 16.5985 22.1887 16.5985 22.0138V19.5755C16.5985 19.4007 16.5059 19.239 16.3545 19.1527L16.3556 19.1515Z" fill="white"/>
</g>
<defs>
<filter id="filter0_i_5227_4354" x="5.51562" y="4.27783" width="16.9697" height="19.4443" filterUnits="userSpaceOnUse" color-interpolation-filters="sRGB">
<feFlood flood-opacity="0" result="BackgroundImageFix"/>
<feBlend mode="normal" in="SourceGraphic" in2="BackgroundImageFix" result="shape"/>
<feColorMatrix in="SourceAlpha" type="matrix" values="0 0 0 0 0 0 0 0 0 0 0 0 0 0 0 0 0 0 127 0" result="hardAlpha"/>
<feOffset dy="-1"/>
<feComposite in2="hardAlpha" operator="arithmetic" k2="-1" k3="1"/>
<feColorMatrix type="matrix" values="0 0 0 0 1 0 0 0 0 1 0 0 0 0 1 0 0 0 0.05 0"/>
<feBlend mode="normal" in2="shape" result="effect1_innerShadow_5227_4354"/>
</filter>
</defs>
</svg>
