<?xml version="1.0" encoding="UTF-8"?>
<svg id="Layer_1" xmlns="http://www.w3.org/2000/svg" version="1.1" viewBox="0 0 95.76 95.28">
  <!-- Generator: Adobe Illustrator 30.3.0, SVG Export Plug-In . SVG Version: 2.1.3 Build 182)  -->
  <path d="M56.08,34.45c1.86-.84,3.59-1.99,5.44-2.88,3.31-1.57,14.18-6.07,17.6-7.27,1.85-.65,7.87.04,9.6.93,1.22.63,1.65,1.29,1.39,2.65-1.12,5.93-12.76,11.86-17.86,14.17-3.24,1.46-6.7,2.56-9.86,4.21l4.62,3.32c5.21,3.05,11.08,11.97,15.79,15.71,1.99,1.58,4.52,4.43,4.96,6.93.04.24,0,.96-.06,1.21-.09.33-1.68,2.8-1.96,3.1-.88.94-1.68,1.08-2.91,1.12-3.78.12-7.28-1.79-10.47-3.59-6.42-3.63-12.59-12.88-18.85-16.86l-.59-.06-.68,5.11c-1.2,6.2-3.39,12.08-5.23,18.1-.83,2.72-1.45,7.3-4.01,9.06-.3.2-.6.13-.84.29-.29.21-.37.72-.85.99-1.23.72-3.85,1.21-4.93.02s-1.53-2.57-1.6-4.13c-.04-1.13.52-2.75.48-3.62-.07-2.07-.25-3.27.04-5.45.97-7.21,3.93-14.27,5-21.48-1.77.55-3.52,1.23-5.25,1.93-4.2,1.7-14.65,5.45-18.9,7.04-3.33,1.25-6.47,2.96-9.8.89-1.04-.65-1.34-1.18-1.66-2.37-.41-1.52.37-2.39,1.34-3.52,3.55-4.21,13.19-8.33,17.97-11.01,3.01-1.69,6.12-3.24,9.31-4.59-.05-.27-.18-.37-.39-.53-1.47-1.06-3.5-1.72-5.06-2.81-2.82-1.96-11.01-7.4-13.77-9.22-3.05-1.99-8.9-9.34-7.36-13.08.17-.41.57-.5.73-.78s.05-.7.19-1.02c.62-1.57,2.27-1.8,3.71-1.26.34.13.62.44.98.59,8.17,3.43,20.97,12.8,28.57,17.27.23.13,1.34.77,1.49.66l1.44-9.36c1.55-5.15,1.24-11.08,4.52-15.54,1.57-2.13,2.86-3.67,5.73-3.17,1.87.32,2.57,1.03,3.3,2.76,1.73,4.07.23,8.64-.21,12.79-.24,2.28-.17,4.65-.41,6.95-.19,1.94-.67,3.84-.71,5.78h0Z"/>
</svg>